<svg width="15" height="18" viewBox="0 0 15 18" fill="none" xmlns="http://www.w3.org/2000/svg">
<path fill-rule="evenodd" clip-rule="evenodd" d="M11.1757 1.3072L11.1766 1.93189C13.4721 2.1118 14.9885 3.67601 14.9909 6.07481L15 13.0963C15.0033 15.7117 13.3602 17.3208 10.7265 17.325L4.29324 17.3333C1.67599 17.3367 0.0123471 15.6892 0.00905605 13.0663L5.54146e-06 6.12729C-0.00328555 3.71266 1.45961 2.15261 3.75514 1.94188L3.75432 1.3172C3.7535 0.950713 4.02501 0.675018 4.38703 0.675018C4.74905 0.674185 5.02057 0.949047 5.02139 1.31553L5.02221 1.89857L9.90949 1.89191L9.90866 1.30887C9.90784 0.942384 10.1794 0.667522 10.5414 0.666689C10.8952 0.665856 11.1749 0.940718 11.1757 1.3072ZM1.26791 6.38466L13.7247 6.368V6.07648C13.6893 4.28571 12.7909 3.34618 11.1782 3.20625L11.179 3.8476C11.179 4.20575 10.9001 4.48977 10.5463 4.48977C10.1843 4.49061 9.91197 4.20741 9.91197 3.84926L9.91114 3.1746L5.02387 3.18126L5.02469 3.85509C5.02469 4.21408 4.754 4.49727 4.39198 4.49727C4.02996 4.4981 3.75762 4.21574 3.75762 3.85676L3.7568 3.21541C2.15239 3.37616 1.26462 4.31903 1.26709 6.12562L1.26791 6.38466ZM10.1998 10.1703V10.1794C10.208 10.5626 10.5207 10.8533 10.9 10.8449C11.2702 10.8358 11.5656 10.5184 11.5574 10.1353C11.5401 9.76879 11.2431 9.46978 10.8736 9.47061C10.4952 9.47894 10.199 9.78712 10.1998 10.1703ZM10.8796 13.91C10.5011 13.9017 10.1959 13.586 10.1951 13.2029C10.1868 12.8197 10.4904 12.5024 10.8689 12.4932H10.8771C11.2638 12.4932 11.5773 12.8089 11.5773 13.2004C11.5781 13.5918 11.2655 13.9092 10.8796 13.91ZM6.8103 10.1836C6.82675 10.5667 7.14023 10.8657 7.51871 10.8491C7.88895 10.8316 8.18433 10.5151 8.16787 10.1319C8.15882 9.75713 7.8544 9.46561 7.48415 9.46644C7.10567 9.4831 6.80947 9.80044 6.8103 10.1836ZM7.52196 13.8726C7.14348 13.8892 6.83083 13.5902 6.81355 13.2071C6.81355 12.8239 7.10893 12.5074 7.4874 12.4899C7.85765 12.4891 8.1629 12.7806 8.17113 13.1546C8.18841 13.5386 7.89221 13.8551 7.52196 13.8726ZM3.4204 10.2127C3.43686 10.5959 3.75034 10.8957 4.12881 10.8782C4.49906 10.8616 4.79444 10.5442 4.77716 10.1611C4.76893 9.78627 4.4645 9.49475 4.09343 9.49558C3.71496 9.51224 3.41958 9.82958 3.4204 10.2127ZM4.13207 13.8767C3.75359 13.8942 3.44094 13.5943 3.42366 13.2112C3.42284 12.8281 3.71904 12.5107 4.09751 12.4941C4.46776 12.4932 4.77301 12.7847 4.78124 13.1596C4.79851 13.5427 4.50314 13.86 4.13207 13.8767Z" fill="#6F6F6F"/>
</svg>
