<svg width="50" height="50" viewBox="0 0 50 50" fill="none" xmlns="http://www.w3.org/2000/svg">
<path d="M26.4445 34.3503C25.9209 34.1865 25.3494 34.2912 24.9165 34.6287L18.9873 39.3912C18.4845 39.7943 17.7927 39.8657 17.2171 39.5744C16.6345 39.299 16.2639 38.7127 16.2602 38.069L16.1295 30.4719C16.1272 30.2065 16.0618 29.946 15.9413 29.7085L15.7445 29.3463C15.6575 29.2309 15.5505 29.1297 15.428 29.0509L9.10787 24.8169C8.80177 24.6042 8.56947 24.3011 8.44505 23.948C8.16464 23.0755 8.63139 22.1379 9.49702 21.8352L16.7186 19.4502C17.2413 19.2682 17.6426 18.844 17.7952 18.3127L19.8492 10.9442C20.0213 10.3277 20.5331 9.86776 21.1639 9.76376C21.7904 9.65515 22.4251 9.90223 22.812 10.4069L27.3863 16.525C27.713 17.0018 28.2616 17.2784 28.8394 17.2586L36.4309 16.9233C36.6023 16.9201 36.7739 16.9428 36.937 16.9944L37.0959 17.0638C37.1996 17.0888 37.2963 17.1298 37.3866 17.1845L37.5193 17.3011L37.7363 17.4775L38.0422 18.0401C38.2632 18.5709 38.203 19.1767 37.8797 19.652L33.5181 25.8649C33.1974 26.3163 33.1199 26.8968 33.3073 27.4166L35.9544 34.5822C36.1794 35.1871 36.0468 35.8668 35.6133 36.3432C35.1725 36.8096 34.5024 36.9782 33.8925 36.7766L26.4445 34.3503Z" fill="#A6A6A6"/>
</svg>
