<svg width="77" height="76" viewBox="0 0 77 76" fill="none" xmlns="http://www.w3.org/2000/svg">
<rect x="0.5" width="76" height="76" rx="38" fill="white" fill-opacity="0.89"/>
<path d="M49.6475 41.3562C49.5298 41.4771 49.0853 41.9937 48.6713 42.4187C46.2439 45.0917 39.9117 49.4667 36.5975 50.8021C36.0941 51.0167 34.8216 51.4708 34.1417 51.5C33.4902 51.5 32.8692 51.35 32.2766 51.0458C31.5378 50.6208 30.9452 49.9521 30.6204 49.1625C30.4114 48.6146 30.0867 46.975 30.0867 46.9458C29.7619 45.1521 29.5833 42.2375 29.5833 39.0167C29.5833 35.9479 29.7619 33.1521 30.0278 31.3312C30.0583 31.3021 30.383 29.2646 30.7382 28.5667C31.3896 27.2917 32.6622 26.5 34.024 26.5H34.1417C35.0286 26.5312 36.8938 27.3229 36.8938 27.3521C40.0294 28.6896 46.2155 32.85 48.7017 35.6146C48.7017 35.6146 49.4019 36.325 49.7063 36.7687C50.1812 37.4062 50.4167 38.1958 50.4167 38.9854C50.4167 39.8667 50.1508 40.6875 49.6475 41.3562" fill="#3D3D3D"/>
</svg>
