<svg width="350" height="271" viewBox="0 0 350 271" fill="none" xmlns="http://www.w3.org/2000/svg">
<path d="M206 229V197H270V69H238V37H270V5H334V197H398V229H206Z" fill="white" fill-opacity="0.04"/>
<path d="M76.5 245V238H69.5V234.5H76.5V227.5H83.5V234.5H90.5V238H83.5V245H76.5Z" fill="white"/>
<path d="M10.5 177V170H3.5V166.5H10.5V159.5H17.5V166.5H24.5V170H17.5V177H10.5Z" fill="white" fill-opacity="0.29"/>
<path d="M118.5 138V131H111.5V127.5H118.5V120.5H125.5V127.5H132.5V131H125.5V138H118.5Z" fill="white" fill-opacity="0.29"/>
<path d="M130.5 264V257H123.5V253.5H130.5V246.5H137.5V253.5H144.5V257H137.5V264H130.5ZM148 267.5V243H169V246.5H172.5V253.5H169V257H172.5V264H169V267.5H148ZM155 253.5H165.5V246.5H155V253.5ZM155 264H165.5V257H155V264ZM176 267.5V243H197V246.5H200.5V253.5H197V257H200.5V264H197V267.5H176ZM183 253.5H193.5V246.5H183V253.5ZM183 264H193.5V257H183V264Z" fill="white" fill-opacity="0.49"/>
<path d="M62.5 64V57H55.5V53.5H62.5V46.5H69.5V53.5H76.5V57H69.5V64H62.5ZM80 67.5V43H101V46.5H104.5V53.5H101V57H104.5V64H101V67.5H80ZM87 53.5H97.5V46.5H87V53.5ZM87 64H97.5V57H87V64ZM108 67.5V43H129V46.5H132.5V53.5H129V57H132.5V64H129V67.5H108ZM115 53.5H125.5V46.5H115V53.5ZM115 64H125.5V57H115V64Z" fill="white" fill-opacity="0.49"/>
</svg>
