<svg width="305" height="107" viewBox="0 0 305 107" fill="none" xmlns="http://www.w3.org/2000/svg">
<path d="M211.5 86V79H204.5V75.5H211.5V68.5H218.5V75.5H225.5V79H218.5V86H211.5Z" fill="white"/>
<path d="M10.5 49V42H3.5V38.5H10.5V31.5H17.5V38.5H24.5V42H17.5V49H10.5ZM28 52.5V28H49V31.5H52.5V38.5H49V42H52.5V49H49V52.5H28ZM35 38.5H45.5V31.5H35V38.5ZM35 49H45.5V42H35V49ZM56 52.5V28H77V31.5H80.5V38.5H77V42H80.5V49H77V52.5H56ZM63 38.5H73.5V31.5H63V38.5ZM63 49H73.5V42H63V49Z" fill="white" fill-opacity="0.49"/>
<path d="M262.5 21V14H255.5V10.5H262.5V3.5H269.5V10.5H276.5V14H269.5V21H262.5Z" fill="white" fill-opacity="0.12"/>
<path d="M287.5 100V93H280.5V89.5H287.5V82.5H294.5V89.5H301.5V93H294.5V100H287.5Z" fill="white" fill-opacity="0.12"/>
</svg>
