<svg width="350" height="255" viewBox="0 0 350 255" fill="none" xmlns="http://www.w3.org/2000/svg">
<path d="M302 224V160H174V96H206V64H238V32H270V0H366V128H398V160H366V224H302ZM238 128H302V64H270V96H238V128Z" fill="white" fill-opacity="0.04"/>
<path d="M76.5 242V235H69.5V231.5H76.5V224.5H83.5V231.5H90.5V235H83.5V242H76.5Z" fill="white"/>
<path d="M10.5 174V167H3.5V163.5H10.5V156.5H17.5V163.5H24.5V167H17.5V174H10.5Z" fill="white" fill-opacity="0.29"/>
<path d="M118.5 135V128H111.5V124.5H118.5V117.5H125.5V124.5H132.5V128H125.5V135H118.5Z" fill="white" fill-opacity="0.29"/>
<path d="M153.5 224V217H146.5V213.5H153.5V206.5H160.5V213.5H167.5V217H160.5V224H153.5ZM171 227.5V203H192V206.5H195.5V213.5H192V217H195.5V224H192V227.5H171ZM178 213.5H188.5V206.5H178V213.5ZM178 224H188.5V217H178V224ZM199 227.5V203H220V206.5H223.5V213.5H220V217H223.5V224H220V227.5H199ZM206 213.5H216.5V206.5H206V213.5ZM206 224H216.5V217H206V224Z" fill="white" fill-opacity="0.49"/>
<path d="M62.5 61V54H55.5V50.5H62.5V43.5H69.5V50.5H76.5V54H69.5V61H62.5ZM80 64.5V40H101V43.5H104.5V50.5H101V54H104.5V61H101V64.5H80ZM87 50.5H97.5V43.5H87V50.5ZM87 61H97.5V54H87V61ZM108 64.5V40H129V43.5H132.5V50.5H129V54H132.5V61H129V64.5H108ZM115 50.5H125.5V43.5H115V50.5ZM115 61H125.5V54H115V61Z" fill="white" fill-opacity="0.49"/>
</svg>
