<svg width="37" height="37" viewBox="0 0 37 37" fill="none" xmlns="http://www.w3.org/2000/svg">
<path d="M14.8093 12.422C15.1897 12.38 15.5255 12.153 15.7075 11.8161L18.1612 7.11277C18.3694 6.71436 18.7914 6.47496 19.2407 6.49981C19.69 6.51257 20.091 6.78326 20.2738 7.19349L22.4854 12.0102C22.5612 12.1791 22.676 12.3272 22.8194 12.4451L23.0467 12.6213C23.1346 12.6707 23.2312 12.7054 23.3316 12.7214L28.5552 13.6558C28.8104 13.7059 29.0437 13.8345 29.222 14.0252C29.6456 14.504 29.6101 15.2338 29.1419 15.6696L25.1966 19.2162C24.9137 19.4789 24.7761 19.8623 24.8275 20.2445L25.5795 25.5271C25.6422 25.9692 25.4441 26.4064 25.0703 26.6495C24.7004 26.8944 24.2258 26.9144 23.8372 26.7003L19.2012 24.0733C18.8588 23.8602 18.4309 23.8372 18.0673 24.0118L13.3116 26.3526C13.2029 26.4026 13.0869 26.4362 12.9683 26.4489L12.8473 26.4491C12.7741 26.4621 12.7009 26.4631 12.6278 26.4534L12.5104 26.4161L12.3223 26.3642L11.9694 26.0905C11.6794 25.8133 11.5482 25.4094 11.6216 25.0152L12.6675 19.8244C12.746 19.4461 12.6328 19.0536 12.3675 18.7741L8.6691 14.9379C8.35595 14.6145 8.25021 14.1431 8.39374 13.7174C8.54464 13.296 8.92548 13.0005 9.37165 12.9585L14.8093 12.422Z" fill="#A6A6A6"/>
</svg>
