<svg width="49" height="43" viewBox="0 0 49 43" fill="none" xmlns="http://www.w3.org/2000/svg">
<rect x="3.5" y="9" width="32" height="31" rx="15.5" fill="white"/>
<path d="M13.5 31V29H17.5V21H15.5V19H17.5V17H21.5V29H25.5V31H13.5Z" fill="black"/>
<path d="M35.875 16.25V10H29.625V6.875H35.875V0.624999H42.125V6.875H48.375V10H42.125V16.25H35.875Z" fill="white"/>
<path d="M6.5 17V11H0.5V8H6.5V2H12.5V8H18.5V11H12.5V17H6.5Z" fill="white" fill-opacity="0.18"/>
<path d="M32.25 42.5V38H27.75V35.75H32.25V31.25H36.75V35.75H41.25V38H36.75V42.5H32.25Z" fill="white" fill-opacity="0.18"/>
</svg>
