<svg width="25" height="25" viewBox="0 0 25 25" fill="none" xmlns="http://www.w3.org/2000/svg">
<path d="M13.5137 19.7087C13.6491 19.8437 13.7566 20.0041 13.83 20.1807C13.9033 20.3574 13.9411 20.5467 13.9411 20.738C13.9411 20.9292 13.9033 21.1186 13.83 21.2952C13.7566 21.4719 13.6491 21.6323 13.5137 21.7673L12.7944 22.4866C11.4314 23.8496 9.58274 24.6153 7.65516 24.6153C5.72758 24.6153 3.87895 23.8496 2.51594 22.4866C1.15294 21.1236 0.387207 19.2749 0.387207 17.3474C0.387207 15.4198 1.15294 13.5711 2.51594 12.2081L5.43672 9.28857C6.74633 7.97572 8.50836 7.2133 10.3619 7.15746C12.2154 7.10163 14.0201 7.75662 15.4064 8.98826C15.5495 9.11548 15.6662 9.26964 15.7497 9.44194C15.8332 9.61425 15.882 9.80132 15.8933 9.99248C15.9045 10.1836 15.878 10.3751 15.8152 10.556C15.7525 10.737 15.6547 10.9037 15.5275 11.0469C15.4002 11.19 15.2461 11.3066 15.0738 11.3902C14.9015 11.4737 14.7144 11.5225 14.5232 11.5337C14.3321 11.545 14.1406 11.5185 13.9597 11.4557C13.7788 11.3929 13.612 11.2952 13.4689 11.1679C12.6376 10.4297 11.5556 10.0369 10.4443 10.07C9.33303 10.1031 8.27636 10.5595 7.49047 11.346L4.57211 14.2619C3.75444 15.0796 3.29507 16.1886 3.29507 17.3449C3.29507 18.5013 3.75444 19.6103 4.57211 20.428C5.38979 21.2457 6.49879 21.705 7.65516 21.705C8.81153 21.705 9.92053 21.2457 10.7382 20.428L11.4575 19.7087C11.5925 19.5736 11.7527 19.4664 11.9291 19.3933C12.1055 19.3201 12.2946 19.2825 12.4856 19.2825C12.6766 19.2825 12.8656 19.3201 13.042 19.3933C13.2185 19.4664 13.3787 19.5736 13.5137 19.7087ZM22.4843 2.51337C21.1202 1.15247 19.272 0.388184 17.3451 0.388184C15.4182 0.388184 13.57 1.15247 12.2059 2.51337L11.4866 3.23267C11.2136 3.50566 11.0602 3.87591 11.0602 4.26197C11.0602 4.64803 11.2136 5.01828 11.4866 5.29127C11.7596 5.56425 12.1298 5.71761 12.5159 5.71761C12.9019 5.71761 13.2722 5.56425 13.5452 5.29127L14.2645 4.57197C15.0821 3.75429 16.1911 3.29493 17.3475 3.29493C18.5039 3.29493 19.6129 3.75429 20.4306 4.57197C21.2482 5.38964 21.7076 6.49865 21.7076 7.65502C21.7076 8.81138 21.2482 9.92039 20.4306 10.7381L17.511 13.6588C16.7244 14.4449 15.6671 14.9007 14.5556 14.9329C13.444 14.9651 12.3621 14.5713 11.5314 13.832C11.3883 13.7048 11.2215 13.607 11.0406 13.5442C10.8597 13.4815 10.6682 13.455 10.477 13.4662C10.2858 13.4775 10.0988 13.5262 9.92646 13.6098C9.75416 13.6933 9.59999 13.81 9.47278 13.9531C9.34556 14.0962 9.24778 14.263 9.18501 14.4439C9.12225 14.6248 9.09573 14.8163 9.10698 15.0075C9.11822 15.1986 9.167 15.3857 9.25055 15.558C9.33409 15.7303 9.45075 15.8845 9.59387 16.0117C10.9792 17.2431 12.7827 17.8985 14.6353 17.8438C16.488 17.7891 18.2497 17.0284 19.5599 15.7174L22.4807 12.7979C23.8432 11.4341 24.6088 9.58536 24.6095 7.65758C24.6102 5.72981 23.8458 3.88054 22.4843 2.5158V2.51337Z" fill="white"/>
</svg>
