<svg width="60" height="60" viewBox="0 0 60 60" fill="none" xmlns="http://www.w3.org/2000/svg">
<g filter="url(#filter0_d_281_3478)">
<path d="M25.7368 22.3798C26.1014 22.2635 26.3858 21.9747 26.4978 21.6085L27.9751 16.5135C28.1006 16.0818 28.4671 15.7638 28.9125 15.6995C29.3555 15.6234 29.802 15.8096 30.0621 16.1757L33.1807 20.4613C33.2883 20.6119 33.43 20.7345 33.594 20.8218L33.8515 20.9497C33.9475 20.9808 34.049 20.9957 34.1506 20.9916L39.4559 20.8769C39.7159 20.8757 39.97 20.9557 40.1825 21.1074C40.6922 21.4933 40.8014 22.2157 40.4284 22.7353L37.2605 26.9907C37.0349 27.304 36.9758 27.7071 37.1015 28.0716L38.8811 33.102C39.0298 33.523 38.9219 33.9907 38.6034 34.3028C38.2892 34.6159 37.8278 34.7291 37.4046 34.5959L32.3413 32.9353C31.9637 32.794 31.5397 32.8559 31.2176 33.0987L27.0173 36.3319C26.9207 36.4024 26.8136 36.4582 26.6998 36.4941L26.5812 36.5181C26.512 36.5454 26.4404 36.5608 26.3669 36.5657L26.2444 36.5523L26.0498 36.5385L25.6498 36.3398C25.3108 36.1253 25.1025 35.7553 25.0967 35.3543L25.0977 30.0592C25.1 29.6729 24.9116 29.3104 24.5964 29.0887L20.2137 26.0578C19.8429 25.8025 19.6463 25.3613 19.703 24.9156C19.7677 24.4727 20.0828 24.1079 20.5119 23.9786L25.7368 22.3798Z" fill="#A6A6A6"/>
</g>
<defs>
<filter id="filter0_d_281_3478" x="-6.13283" y="-4.57685" width="72.7979" height="72.7978" filterUnits="userSpaceOnUse" color-interpolation-filters="sRGB">
<feFlood flood-opacity="0" result="BackgroundImageFix"/>
<feColorMatrix in="SourceAlpha" type="matrix" values="0 0 0 0 0 0 0 0 0 0 0 0 0 0 0 0 0 0 127 0" result="hardAlpha"/>
<feOffset dy="4.44404"/>
<feGaussianBlur stdDeviation="9.66578"/>
<feComposite in2="hardAlpha" operator="out"/>
<feColorMatrix type="matrix" values="0 0 0 0 1 0 0 0 0 1 0 0 0 0 1 0 0 0 0.55 0"/>
<feBlend mode="normal" in2="BackgroundImageFix" result="effect1_dropShadow_281_3478"/>
<feBlend mode="normal" in="SourceGraphic" in2="effect1_dropShadow_281_3478" result="shape"/>
</filter>
</defs>
</svg>
