<svg width="69" height="67" viewBox="0 0 69 67" fill="none" xmlns="http://www.w3.org/2000/svg">
<g filter="url(#filter0_d_281_3479)">
<path d="M37.4453 40.3499C36.9217 40.1861 36.3501 40.2908 35.9172 40.6283L29.988 45.3907C29.4852 45.7939 28.7934 45.8653 28.2178 45.574C27.6352 45.2986 27.2646 44.7123 27.2609 44.0685L27.1303 36.4714C27.128 36.2061 27.0625 35.9456 26.9421 35.7081L26.7452 35.3459C26.6582 35.2305 26.5513 35.1293 26.4288 35.0505L20.1086 30.8165C19.8025 30.6037 19.5702 30.3006 19.4458 29.9476C19.1654 29.075 19.6321 28.1374 20.4977 27.8348L27.7194 25.4498C28.242 25.2678 28.6433 24.8436 28.7959 24.3122L30.8499 16.9438C31.0221 16.3273 31.5338 15.8673 32.1646 15.7633C32.7912 15.6547 33.4258 15.9018 33.8127 16.4065L38.387 22.5246C38.7137 23.0014 39.2623 23.278 39.8402 23.2581L47.4316 22.9228C47.603 22.9197 47.7746 22.9424 47.9377 22.994L48.0967 23.0634C48.2003 23.0884 48.297 23.1293 48.3874 23.1841L48.52 23.3007L48.7371 23.477L49.0429 24.0396C49.264 24.5705 49.2037 25.1763 48.8804 25.6516L44.5188 31.8645C44.1981 32.3159 44.1207 32.8964 44.308 33.4161L46.9552 40.5818C47.1801 41.1867 47.0476 41.8664 46.614 42.3428C46.1733 42.8092 45.5032 42.9778 44.8932 42.7762L37.4453 40.3499Z" fill="#A6A6A6"/>
</g>
<defs>
<filter id="filter0_d_281_3479" x="-7.84084" y="-8.88728" width="88.1724" height="88.1725" filterUnits="userSpaceOnUse" color-interpolation-filters="sRGB">
<feFlood flood-opacity="0" result="BackgroundImageFix"/>
<feColorMatrix in="SourceAlpha" type="matrix" values="0 0 0 0 0 0 0 0 0 0 0 0 0 0 0 0 0 0 127 0" result="hardAlpha"/>
<feOffset dy="4.44404"/>
<feGaussianBlur stdDeviation="9.66578"/>
<feComposite in2="hardAlpha" operator="out"/>
<feColorMatrix type="matrix" values="0 0 0 0 1 0 0 0 0 1 0 0 0 0 1 0 0 0 0.55 0"/>
<feBlend mode="normal" in2="BackgroundImageFix" result="effect1_dropShadow_281_3479"/>
<feBlend mode="normal" in="SourceGraphic" in2="effect1_dropShadow_281_3479" result="shape"/>
</filter>
</defs>
</svg>
