<svg width="60" height="59" viewBox="0 0 60 59" fill="none" xmlns="http://www.w3.org/2000/svg">
<g filter="url(#filter0_d_281_3477)">
<path d="M25.8086 21.422C26.189 21.38 26.5248 21.153 26.7068 20.8161L29.1604 16.1128C29.3687 15.7144 29.7907 15.475 30.24 15.4998C30.6893 15.5126 31.0903 15.7833 31.273 16.1935L33.4847 21.0102C33.5605 21.1791 33.6752 21.3272 33.8187 21.4451L34.0459 21.6213C34.1339 21.6707 34.2305 21.7054 34.3309 21.7214L39.5545 22.6558C39.8096 22.7059 40.0429 22.8345 40.2213 23.0252C40.6449 23.504 40.6094 24.2338 40.1411 24.6696L36.1958 28.2162C35.9129 28.4789 35.7754 28.8623 35.8267 29.2445L36.5787 34.5271C36.6414 34.9692 36.4434 35.4064 36.0695 35.6495C35.6997 35.8944 35.225 35.9144 34.8365 35.7003L30.2004 33.0733C29.8581 32.8602 29.4302 32.8372 29.0666 33.0118L24.3108 35.3526C24.2022 35.4026 24.0862 35.4362 23.9676 35.4489L23.8466 35.4491C23.7734 35.4621 23.7001 35.4631 23.6271 35.4534L23.5097 35.4161L23.3216 35.3642L22.9686 35.0905C22.6787 34.8133 22.5475 34.4094 22.6209 34.0152L23.6668 28.8244C23.7452 28.4461 23.6321 28.0536 23.3668 27.7741L19.6684 23.9379C19.3552 23.6145 19.2495 23.1431 19.393 22.7174C19.5439 22.296 19.9247 22.0005 20.3709 21.9585L25.8086 21.422Z" fill="#A6A6A6"/>
</g>
<defs>
<filter id="filter0_d_281_3477" x="-7.93263" y="-5.53614" width="74.3916" height="74.3918" filterUnits="userSpaceOnUse" color-interpolation-filters="sRGB">
<feFlood flood-opacity="0" result="BackgroundImageFix"/>
<feColorMatrix in="SourceAlpha" type="matrix" values="0 0 0 0 0 0 0 0 0 0 0 0 0 0 0 0 0 0 127 0" result="hardAlpha"/>
<feOffset dy="4.44404"/>
<feGaussianBlur stdDeviation="9.66578"/>
<feComposite in2="hardAlpha" operator="out"/>
<feColorMatrix type="matrix" values="0 0 0 0 1 0 0 0 0 1 0 0 0 0 1 0 0 0 0.55 0"/>
<feBlend mode="normal" in2="BackgroundImageFix" result="effect1_dropShadow_281_3477"/>
<feBlend mode="normal" in="SourceGraphic" in2="effect1_dropShadow_281_3477" result="shape"/>
</filter>
</defs>
</svg>
