<svg width="375" height="812" viewBox="0 0 375 812" fill="none" xmlns="http://www.w3.org/2000/svg">
<rect width="375" height="812" fill="#232323"/>
<path d="M142.288 207.043L132.288 204.043C132.138 203.998 131.98 203.989 131.827 204.016C131.673 204.043 131.528 204.105 131.403 204.198C131.278 204.291 131.177 204.412 131.107 204.551C131.037 204.691 131 204.844 131 205V218.533C129.976 217.617 128.668 217.08 127.296 217.012C125.924 216.944 124.57 217.35 123.46 218.16C122.351 218.971 121.553 220.138 121.201 221.466C120.848 222.794 120.962 224.202 121.524 225.456C122.085 226.711 123.06 227.734 124.285 228.356C125.511 228.977 126.912 229.16 128.256 228.872C129.599 228.584 130.803 227.844 131.667 226.776C132.531 225.707 133.001 224.374 133 223V206.344L141.713 208.958C141.839 208.999 141.973 209.015 142.106 209.003C142.239 208.992 142.368 208.955 142.486 208.893C142.604 208.831 142.708 208.746 142.793 208.644C142.878 208.541 142.942 208.422 142.98 208.294C143.018 208.167 143.031 208.033 143.017 207.9C143.002 207.768 142.962 207.639 142.897 207.523C142.833 207.406 142.746 207.304 142.641 207.221C142.536 207.139 142.416 207.078 142.288 207.043Z" fill="white"/>
<path d="M331.288 178.043L321.288 175.043C321.138 174.998 320.98 174.989 320.827 175.016C320.673 175.043 320.528 175.105 320.403 175.198C320.278 175.291 320.177 175.412 320.107 175.551C320.037 175.691 320 175.844 320 176V189.533C318.976 188.617 317.668 188.08 316.296 188.012C314.924 187.944 313.57 188.35 312.46 189.16C311.351 189.971 310.553 191.138 310.201 192.466C309.848 193.794 309.962 195.202 310.524 196.456C311.085 197.711 312.06 198.734 313.285 199.356C314.511 199.977 315.912 200.16 317.256 199.872C318.599 199.584 319.803 198.844 320.667 197.776C321.531 196.707 322.001 195.374 322 194V177.344L330.713 179.958C330.839 179.999 330.973 180.015 331.106 180.003C331.239 179.992 331.368 179.955 331.486 179.893C331.604 179.831 331.708 179.746 331.793 179.644C331.878 179.541 331.942 179.422 331.98 179.294C332.018 179.167 332.031 179.033 332.017 178.9C332.002 178.768 331.962 178.639 331.897 178.523C331.833 178.406 331.746 178.304 331.641 178.221C331.536 178.139 331.416 178.078 331.288 178.043Z" fill="white"/>
<path d="M211.288 135.043L201.288 132.043C201.138 131.998 200.98 131.989 200.827 132.016C200.673 132.043 200.528 132.105 200.403 132.198C200.278 132.291 200.177 132.412 200.107 132.551C200.037 132.691 200 132.844 200 133V146.533C198.976 145.617 197.668 145.08 196.296 145.012C194.924 144.944 193.57 145.35 192.46 146.16C191.351 146.971 190.553 148.138 190.201 149.466C189.848 150.794 189.962 152.202 190.524 153.456C191.085 154.711 192.06 155.734 193.285 156.356C194.511 156.977 195.912 157.16 197.256 156.872C198.599 156.584 199.803 155.844 200.667 154.776C201.531 153.707 202.001 152.374 202 151V134.344L210.713 136.958C210.839 136.999 210.973 137.015 211.106 137.003C211.239 136.992 211.368 136.955 211.486 136.893C211.604 136.831 211.708 136.746 211.793 136.644C211.878 136.541 211.942 136.422 211.98 136.294C212.018 136.167 212.031 136.033 212.017 135.9C212.002 135.768 211.962 135.639 211.897 135.523C211.833 135.406 211.746 135.304 211.641 135.221C211.536 135.139 211.416 135.078 211.288 135.043Z" fill="white"/>
<path d="M51.2875 77.0427L41.2875 74.0427C41.1382 73.9979 40.9805 73.9886 40.827 74.0156C40.6734 74.0425 40.5283 74.105 40.4032 74.1981C40.2782 74.2911 40.1766 74.4121 40.1065 74.5513C40.0365 74.6906 40 74.8443 40 75.0002V88.5327C38.9759 87.6167 37.6684 87.08 36.2961 87.0122C34.9238 86.9444 33.5697 87.3496 32.4603 88.1602C31.3509 88.9708 30.5533 90.1376 30.2008 91.4656C29.8483 92.7936 29.9623 94.2024 30.5237 95.4565C31.0851 96.7105 32.06 97.7339 33.2853 98.3556C34.5106 98.9772 35.9122 99.1595 37.2557 98.872C38.5993 98.5844 39.8035 97.8444 40.667 96.7757C41.5305 95.7069 42.0011 94.3742 42 93.0002V76.344L50.7125 78.9577C50.8392 78.999 50.9729 79.0145 51.1057 79.0034C51.2385 78.9923 51.3678 78.9547 51.4859 78.8929C51.6039 78.8311 51.7085 78.7463 51.7933 78.6436C51.8782 78.5408 51.9416 78.4221 51.98 78.2945C52.0183 78.1668 52.0307 78.0328 52.0165 77.9003C52.0023 77.7678 51.9618 77.6394 51.8972 77.5228C51.8327 77.4062 51.7456 77.3036 51.6408 77.2212C51.5361 77.1387 51.416 77.0781 51.2875 77.0427Z" fill="white"/>
<path d="M355.288 507.043L345.288 504.043C345.138 503.998 344.98 503.989 344.827 504.016C344.673 504.043 344.528 504.105 344.403 504.198C344.278 504.291 344.177 504.412 344.107 504.551C344.037 504.691 344 504.844 344 505V518.533C342.976 517.617 341.668 517.08 340.296 517.012C338.924 516.944 337.57 517.35 336.46 518.16C335.351 518.971 334.553 520.138 334.201 521.466C333.848 522.794 333.962 524.202 334.524 525.456C335.085 526.711 336.06 527.734 337.285 528.356C338.511 528.977 339.912 529.16 341.256 528.872C342.599 528.584 343.803 527.844 344.667 526.776C345.531 525.707 346.001 524.374 346 523V506.344L354.713 508.958C354.839 508.999 354.973 509.015 355.106 509.003C355.239 508.992 355.368 508.955 355.486 508.893C355.604 508.831 355.708 508.746 355.793 508.644C355.878 508.541 355.942 508.422 355.98 508.294C356.018 508.167 356.031 508.033 356.017 507.9C356.002 507.768 355.962 507.639 355.897 507.523C355.833 507.406 355.746 507.304 355.641 507.221C355.536 507.139 355.416 507.078 355.288 507.043Z" fill="white"/>
<path d="M79.615 181.211C79.4952 181.118 79.3557 181.053 79.2072 181.022C79.0586 180.99 78.9048 180.993 78.7575 181.03L62.7575 185.03C62.5412 185.084 62.3491 185.209 62.2119 185.385C62.0746 185.56 62 185.777 62 186V199.76C61.1658 199.203 60.1692 198.94 59.1687 199.014C58.1681 199.088 57.221 199.494 56.4776 200.168C55.7343 200.841 55.2375 201.744 55.0661 202.733C54.8948 203.721 55.0587 204.739 55.5318 205.624C56.0049 206.508 56.7601 207.21 57.6774 207.616C58.5947 208.022 59.6215 208.11 60.5946 207.866C61.5678 207.622 62.4315 207.06 63.0485 206.269C63.6655 205.478 64.0004 204.503 64 203.5V186.781L78 183.281V195.76C77.1658 195.203 76.1692 194.94 75.1687 195.014C74.1681 195.088 73.221 195.494 72.4776 196.168C71.7343 196.841 71.2375 197.744 71.0661 198.733C70.8948 199.721 71.0587 200.739 71.5318 201.624C72.0049 202.508 72.7601 203.21 73.6774 203.616C74.5947 204.022 75.6215 204.11 76.5946 203.866C77.5678 203.622 78.4315 203.06 79.0485 202.269C79.6655 201.478 80.0004 200.503 80 199.5V182C80 181.848 79.9654 181.698 79.8987 181.561C79.8319 181.424 79.7349 181.305 79.615 181.211Z" fill="#636363"/>
<path d="M158.615 537.211C158.495 537.118 158.356 537.053 158.207 537.022C158.059 536.99 157.905 536.993 157.758 537.03L141.758 541.03C141.541 541.084 141.349 541.209 141.212 541.385C141.075 541.56 141 541.777 141 542V555.76C140.166 555.203 139.169 554.94 138.169 555.014C137.168 555.088 136.221 555.494 135.478 556.168C134.734 556.841 134.238 557.744 134.066 558.733C133.895 559.721 134.059 560.739 134.532 561.624C135.005 562.508 135.76 563.21 136.677 563.616C137.595 564.022 138.621 564.11 139.595 563.866C140.568 563.622 141.431 563.06 142.048 562.269C142.665 561.478 143 560.503 143 559.5V542.781L157 539.281V551.76C156.166 551.203 155.169 550.94 154.169 551.014C153.168 551.088 152.221 551.494 151.478 552.168C150.734 552.841 150.238 553.744 150.066 554.733C149.895 555.721 150.059 556.739 150.532 557.624C151.005 558.508 151.76 559.21 152.677 559.616C153.595 560.022 154.621 560.11 155.595 559.866C156.568 559.622 157.431 559.06 158.048 558.269C158.665 557.478 159 556.503 159 555.5V538C159 537.848 158.965 537.698 158.899 537.561C158.832 537.424 158.735 537.305 158.615 537.211Z" fill="#636363"/>
<path d="M238.615 646.211C238.495 646.118 238.356 646.053 238.207 646.022C238.059 645.99 237.905 645.993 237.758 646.03L221.758 650.03C221.541 650.084 221.349 650.209 221.212 650.385C221.075 650.56 221 650.777 221 651V664.76C220.166 664.203 219.169 663.94 218.169 664.014C217.168 664.088 216.221 664.494 215.478 665.168C214.734 665.841 214.238 666.744 214.066 667.733C213.895 668.721 214.059 669.739 214.532 670.624C215.005 671.508 215.76 672.21 216.677 672.616C217.595 673.022 218.621 673.11 219.595 672.866C220.568 672.622 221.431 672.06 222.048 671.269C222.665 670.478 223 669.503 223 668.5V651.781L237 648.281V660.76C236.166 660.203 235.169 659.94 234.169 660.014C233.168 660.088 232.221 660.494 231.478 661.168C230.734 661.841 230.238 662.744 230.066 663.733C229.895 664.721 230.059 665.739 230.532 666.624C231.005 667.508 231.76 668.21 232.677 668.616C233.595 669.022 234.621 669.11 235.595 668.866C236.568 668.622 237.431 668.06 238.048 667.269C238.665 666.478 239 665.503 239 664.5V647C239 646.848 238.965 646.698 238.899 646.561C238.832 646.424 238.735 646.305 238.615 646.211Z" fill="#636363"/>
<path d="M64.615 594.211C64.4952 594.118 64.3557 594.053 64.2072 594.022C64.0586 593.99 63.9048 593.993 63.7575 594.03L47.7575 598.03C47.5412 598.084 47.3491 598.209 47.2119 598.385C47.0746 598.56 47 598.777 47 599V612.76C46.1658 612.203 45.1692 611.94 44.1687 612.014C43.1681 612.088 42.221 612.494 41.4776 613.168C40.7343 613.841 40.2375 614.744 40.0661 615.733C39.8948 616.721 40.0587 617.739 40.5318 618.624C41.0049 619.508 41.7601 620.21 42.6774 620.616C43.5947 621.022 44.6215 621.11 45.5946 620.866C46.5678 620.622 47.4315 620.06 48.0485 619.269C48.6655 618.478 49.0004 617.503 49 616.5V599.781L63 596.281V608.76C62.1658 608.203 61.1692 607.94 60.1687 608.014C59.1681 608.088 58.221 608.494 57.4776 609.168C56.7343 609.841 56.2375 610.744 56.0661 611.733C55.8948 612.721 56.0587 613.739 56.5318 614.624C57.0049 615.508 57.7601 616.21 58.6774 616.616C59.5947 617.022 60.6215 617.11 61.5946 616.866C62.5678 616.622 63.4315 616.06 64.0485 615.269C64.6655 614.478 65.0004 613.503 65 612.5V595C65 594.848 64.9654 594.698 64.8987 594.561C64.8319 594.424 64.7349 594.305 64.615 594.211Z" fill="#636363"/>
<path d="M266.615 213.211C266.495 213.118 266.356 213.053 266.207 213.022C266.059 212.99 265.905 212.993 265.758 213.03L249.758 217.03C249.541 217.084 249.349 217.209 249.212 217.385C249.075 217.56 249 217.777 249 218V231.76C248.166 231.203 247.169 230.94 246.169 231.014C245.168 231.088 244.221 231.494 243.478 232.168C242.734 232.841 242.238 233.744 242.066 234.733C241.895 235.721 242.059 236.739 242.532 237.624C243.005 238.508 243.76 239.21 244.677 239.616C245.595 240.022 246.621 240.11 247.595 239.866C248.568 239.622 249.431 239.06 250.048 238.269C250.665 237.478 251 236.503 251 235.5V218.781L265 215.281V227.76C264.166 227.203 263.169 226.94 262.169 227.014C261.168 227.088 260.221 227.494 259.478 228.168C258.734 228.841 258.238 229.744 258.066 230.733C257.895 231.721 258.059 232.739 258.532 233.624C259.005 234.508 259.76 235.21 260.677 235.616C261.595 236.022 262.621 236.11 263.595 235.866C264.568 235.622 265.431 235.06 266.048 234.269C266.665 233.478 267 232.503 267 231.5V214C267 213.848 266.965 213.698 266.899 213.561C266.832 213.424 266.735 213.305 266.615 213.211Z" fill="#636363"/>
<path d="M120.615 86.2112C120.495 86.1179 120.356 86.053 120.207 86.0216C120.059 85.9902 119.905 85.9931 119.758 86.0299L103.758 90.0299C103.541 90.084 103.349 90.2089 103.212 90.3846C103.075 90.5604 103 90.7769 103 90.9999V104.76C102.166 104.203 101.169 103.94 100.169 104.014C99.1681 104.088 98.221 104.494 97.4776 105.168C96.7343 105.841 96.2375 106.744 96.0661 107.733C95.8948 108.721 96.0587 109.739 96.5318 110.624C97.0049 111.508 97.7601 112.21 98.6774 112.616C99.5947 113.022 100.621 113.11 101.595 112.866C102.568 112.622 103.431 112.06 104.048 111.269C104.665 110.478 105 109.503 105 108.5V91.7812L119 88.2812V100.76C118.166 100.203 117.169 99.9399 116.169 100.014C115.168 100.088 114.221 100.494 113.478 101.168C112.734 101.841 112.238 102.744 112.066 103.733C111.895 104.721 112.059 105.739 112.532 106.624C113.005 107.508 113.76 108.21 114.677 108.616C115.595 109.022 116.621 109.11 117.595 108.866C118.568 108.622 119.431 108.06 120.048 107.269C120.665 106.478 121 105.503 121 104.5V86.9999C121 86.8478 120.965 86.6977 120.899 86.5611C120.832 86.4244 120.735 86.3047 120.615 86.2112Z" fill="#636363"/>
<path d="M47.2875 496.043L37.2875 493.043C37.1382 492.998 36.9805 492.989 36.827 493.016C36.6734 493.043 36.5283 493.105 36.4032 493.198C36.2782 493.291 36.1766 493.412 36.1065 493.551C36.0365 493.691 36 493.844 36 494V507.533C34.9759 506.617 33.6684 506.08 32.2961 506.012C30.9238 505.944 29.5697 506.35 28.4603 507.16C27.3509 507.971 26.5533 509.138 26.2008 510.466C25.8483 511.794 25.9623 513.202 26.5237 514.456C27.0851 515.711 28.06 516.734 29.2853 517.356C30.5106 517.977 31.9122 518.16 33.2557 517.872C34.5993 517.584 35.8035 516.844 36.667 515.776C37.5305 514.707 38.0011 513.374 38 512V495.344L46.7125 497.958C46.8392 497.999 46.9729 498.015 47.1057 498.003C47.2385 497.992 47.3678 497.955 47.4859 497.893C47.6039 497.831 47.7085 497.746 47.7933 497.644C47.8782 497.541 47.9416 497.422 47.98 497.294C48.0183 497.167 48.0307 497.033 48.0165 496.9C48.0023 496.768 47.9618 496.639 47.8972 496.523C47.8327 496.406 47.7456 496.304 47.6408 496.221C47.5361 496.139 47.416 496.078 47.2875 496.043Z" fill="white"/>
<path d="M199.288 593.043L189.288 590.043C189.138 589.998 188.98 589.989 188.827 590.016C188.673 590.043 188.528 590.105 188.403 590.198C188.278 590.291 188.177 590.412 188.107 590.551C188.037 590.691 188 590.844 188 591V604.533C186.976 603.617 185.668 603.08 184.296 603.012C182.924 602.944 181.57 603.35 180.46 604.16C179.351 604.971 178.553 606.138 178.201 607.466C177.848 608.794 177.962 610.202 178.524 611.456C179.085 612.711 180.06 613.734 181.285 614.356C182.511 614.977 183.912 615.16 185.256 614.872C186.599 614.584 187.803 613.844 188.667 612.776C189.531 611.707 190.001 610.374 190 609V592.344L198.713 594.958C198.839 594.999 198.973 595.015 199.106 595.003C199.239 594.992 199.368 594.955 199.486 594.893C199.604 594.831 199.708 594.746 199.793 594.644C199.878 594.541 199.942 594.422 199.98 594.294C200.018 594.167 200.031 594.033 200.017 593.9C200.002 593.768 199.962 593.639 199.897 593.523C199.833 593.406 199.746 593.304 199.641 593.221C199.536 593.139 199.416 593.078 199.288 593.043Z" fill="white"/>
<path d="M135.288 654.043L125.288 651.043C125.138 650.998 124.98 650.989 124.827 651.016C124.673 651.043 124.528 651.105 124.403 651.198C124.278 651.291 124.177 651.412 124.107 651.551C124.037 651.691 124 651.844 124 652V665.533C122.976 664.617 121.668 664.08 120.296 664.012C118.924 663.944 117.57 664.35 116.46 665.16C115.351 665.971 114.553 667.138 114.201 668.466C113.848 669.794 113.962 671.202 114.524 672.456C115.085 673.711 116.06 674.734 117.285 675.356C118.511 675.977 119.912 676.16 121.256 675.872C122.599 675.584 123.803 674.844 124.667 673.776C125.531 672.707 126.001 671.374 126 670V653.344L134.713 655.958C134.839 655.999 134.973 656.015 135.106 656.003C135.239 655.992 135.368 655.955 135.486 655.893C135.604 655.831 135.708 655.746 135.793 655.644C135.878 655.541 135.942 655.422 135.98 655.294C136.018 655.167 136.031 655.033 136.017 654.9C136.002 654.768 135.962 654.639 135.897 654.523C135.833 654.406 135.746 654.304 135.641 654.221C135.536 654.139 135.416 654.078 135.288 654.043Z" fill="white"/>
<path d="M78.615 669.211C78.4952 669.118 78.3557 669.053 78.2072 669.022C78.0586 668.99 77.9048 668.993 77.7575 669.03L61.7575 673.03C61.5412 673.084 61.3491 673.209 61.2119 673.385C61.0746 673.56 61 673.777 61 674V687.76C60.1658 687.203 59.1692 686.94 58.1687 687.014C57.1681 687.088 56.221 687.494 55.4776 688.168C54.7343 688.841 54.2375 689.744 54.0661 690.733C53.8948 691.721 54.0587 692.739 54.5318 693.624C55.0049 694.508 55.7601 695.21 56.6774 695.616C57.5947 696.022 58.6215 696.11 59.5946 695.866C60.5678 695.622 61.4315 695.06 62.0485 694.269C62.6655 693.478 63.0004 692.503 63 691.5V674.781L77 671.281V683.76C76.1658 683.203 75.1692 682.94 74.1687 683.014C73.1681 683.088 72.221 683.494 71.4776 684.168C70.7343 684.841 70.2375 685.744 70.0661 686.733C69.8948 687.721 70.0587 688.739 70.5318 689.624C71.0049 690.508 71.7601 691.21 72.6774 691.616C73.5947 692.022 74.6215 692.11 75.5946 691.866C76.5678 691.622 77.4315 691.06 78.0485 690.269C78.6655 689.478 79.0004 688.503 79 687.5V670C79 669.848 78.9654 669.698 78.8987 669.561C78.8319 669.424 78.7349 669.305 78.615 669.211Z" fill="#636363"/>
<path d="M323.288 650.043L313.288 647.043C313.138 646.998 312.98 646.989 312.827 647.016C312.673 647.043 312.528 647.105 312.403 647.198C312.278 647.291 312.177 647.412 312.107 647.551C312.037 647.691 312 647.844 312 648V661.533C310.976 660.617 309.668 660.08 308.296 660.012C306.924 659.944 305.57 660.35 304.46 661.16C303.351 661.971 302.553 663.138 302.201 664.466C301.848 665.794 301.962 667.202 302.524 668.456C303.085 669.711 304.06 670.734 305.285 671.356C306.511 671.977 307.912 672.16 309.256 671.872C310.599 671.584 311.803 670.844 312.667 669.776C313.531 668.707 314.001 667.374 314 666V649.344L322.713 651.958C322.839 651.999 322.973 652.015 323.106 652.003C323.239 651.992 323.368 651.955 323.486 651.893C323.604 651.831 323.708 651.746 323.793 651.644C323.878 651.541 323.942 651.422 323.98 651.294C324.018 651.167 324.031 651.033 324.017 650.9C324.002 650.768 323.962 650.639 323.897 650.523C323.833 650.406 323.746 650.304 323.641 650.221C323.536 650.139 323.416 650.078 323.288 650.043Z" fill="white"/>
<path d="M261.615 559.211C261.495 559.118 261.356 559.053 261.207 559.022C261.059 558.99 260.905 558.993 260.758 559.03L244.758 563.03C244.541 563.084 244.349 563.209 244.212 563.385C244.075 563.56 244 563.777 244 564V577.76C243.166 577.203 242.169 576.94 241.169 577.014C240.168 577.088 239.221 577.494 238.478 578.168C237.734 578.841 237.238 579.744 237.066 580.733C236.895 581.721 237.059 582.739 237.532 583.624C238.005 584.508 238.76 585.21 239.677 585.616C240.595 586.022 241.621 586.11 242.595 585.866C243.568 585.622 244.431 585.06 245.048 584.269C245.665 583.478 246 582.503 246 581.5V564.781L260 561.281V573.76C259.166 573.203 258.169 572.94 257.169 573.014C256.168 573.088 255.221 573.494 254.478 574.168C253.734 574.841 253.238 575.744 253.066 576.733C252.895 577.721 253.059 578.739 253.532 579.624C254.005 580.508 254.76 581.21 255.677 581.616C256.595 582.022 257.621 582.11 258.595 581.866C259.568 581.622 260.431 581.06 261.048 580.269C261.665 579.478 262 578.503 262 577.5V560C262 559.848 261.965 559.698 261.899 559.561C261.832 559.424 261.735 559.305 261.615 559.211Z" fill="#636363"/>
<path d="M317.615 99.2112C317.495 99.1179 317.356 99.053 317.207 99.0216C317.059 98.9902 316.905 98.9931 316.758 99.0299L300.758 103.03C300.541 103.084 300.349 103.209 300.212 103.385C300.075 103.56 300 103.777 300 104V117.76C299.166 117.203 298.169 116.94 297.169 117.014C296.168 117.088 295.221 117.494 294.478 118.168C293.734 118.841 293.238 119.744 293.066 120.733C292.895 121.721 293.059 122.739 293.532 123.624C294.005 124.508 294.76 125.21 295.677 125.616C296.595 126.022 297.621 126.11 298.595 125.866C299.568 125.622 300.431 125.06 301.048 124.269C301.665 123.478 302 122.503 302 121.5V104.781L316 101.281V113.76C315.166 113.203 314.169 112.94 313.169 113.014C312.168 113.088 311.221 113.494 310.478 114.168C309.734 114.841 309.238 115.744 309.066 116.733C308.895 117.721 309.059 118.739 309.532 119.624C310.005 120.508 310.76 121.21 311.677 121.616C312.595 122.022 313.621 122.11 314.595 121.866C315.568 121.622 316.431 121.06 317.048 120.269C317.665 119.478 318 118.503 318 117.5V99.9999C318 99.8478 317.965 99.6977 317.899 99.5611C317.832 99.4244 317.735 99.3047 317.615 99.2112Z" fill="#636363"/>
</svg>
