<svg width="35" height="35" viewBox="0 0 35 35" fill="none" xmlns="http://www.w3.org/2000/svg">
<path d="M12.737 12.3801C13.1016 12.2638 13.3861 11.975 13.498 11.6088L14.9753 6.51378C15.1009 6.08211 15.4673 5.76415 15.9127 5.69985C16.3557 5.6237 16.8023 5.80994 17.0623 6.17605L20.1809 10.4616C20.2886 10.6122 20.4303 10.7348 20.5942 10.8221L20.8518 10.95C20.9477 10.9811 21.0493 10.996 21.1508 10.9919L26.4561 10.8772C26.7161 10.876 26.9702 10.956 27.1827 11.1077C27.6925 11.4936 27.8016 12.216 27.4286 12.7356L24.2607 16.991C24.0352 17.3043 23.976 17.7074 24.1018 18.0719L25.8814 23.1023C26.0301 23.5233 25.9222 23.991 25.6037 24.3031C25.2894 24.6162 24.828 24.7294 24.4049 24.5962L19.3416 22.9356C18.964 22.7943 18.5399 22.8562 18.2179 23.099L14.0175 26.3322C13.9209 26.4027 13.8138 26.4585 13.7 26.4944L13.5815 26.5185C13.5123 26.5457 13.4407 26.5611 13.3671 26.566L13.2447 26.5526L13.0501 26.5389L12.65 26.3401C12.3111 26.1256 12.1027 25.7556 12.0969 25.3546L12.098 20.0595C12.1003 19.6732 11.9119 19.3107 11.5967 19.089L7.21399 16.0581C6.84318 15.8028 6.6465 15.3616 6.7032 14.9159C6.76798 14.473 7.08303 14.1082 7.51213 13.9789L12.737 12.3801Z" fill="#FFB20C"/>
</svg>
