<svg width="80" height="80" viewBox="0 0 80 80" fill="none" xmlns="http://www.w3.org/2000/svg">
<path d="M59.727 47.7335C58.8637 48.5702 58.467 49.7802 58.6637 50.9668L61.627 67.3668C61.877 68.7568 61.2903 70.1635 60.127 70.9668C58.987 71.8002 57.4703 71.9002 56.227 71.2335L41.4637 63.5335C40.9503 63.2602 40.3803 63.1135 39.797 63.0968H38.8937C38.5803 63.1435 38.2737 63.2435 37.9937 63.3968L23.227 71.1335C22.497 71.5002 21.6703 71.6302 20.8603 71.5002C18.887 71.1268 17.5703 69.2468 17.8936 67.2635L20.8603 50.8635C21.057 49.6668 20.6603 48.4502 19.797 47.6002L7.76032 35.9335C6.75365 34.9568 6.40365 33.4902 6.86365 32.1668C7.31032 30.8468 8.45032 29.8835 9.82698 29.6668L26.3937 27.2635C27.6537 27.1335 28.7603 26.3668 29.327 25.2335L36.627 10.2668C36.8003 9.9335 37.0237 9.62683 37.2937 9.36683L37.5937 9.1335C37.7503 8.96016 37.9303 8.81683 38.1303 8.70016L38.4937 8.56683L39.0603 8.3335H40.4637C41.717 8.4635 42.8203 9.2135 43.397 10.3335L50.7937 25.2335C51.327 26.3235 52.3637 27.0802 53.5603 27.2635L70.127 29.6668C71.527 29.8668 72.697 30.8335 73.1603 32.1668C73.597 33.5035 73.2203 34.9702 72.1937 35.9335L59.727 47.7335Z" fill="#494949"/>
</svg>
