<svg width="350" height="268" viewBox="0 0 350 268" fill="none" xmlns="http://www.w3.org/2000/svg">
<path d="M174 224V160H206V128H238V96H302V64H334V32H238V64H174V32H206V0H366V32H398V96H366V128H334V160H270V192H398V224H174Z" fill="white" fill-opacity="0.04"/>
<path d="M76.5 242V235H69.5V231.5H76.5V224.5H83.5V231.5H90.5V235H83.5V242H76.5Z" fill="white"/>
<path d="M10.5 174V167H3.5V163.5H10.5V156.5H17.5V163.5H24.5V167H17.5V174H10.5Z" fill="white" fill-opacity="0.29"/>
<path d="M118.5 135V128H111.5V124.5H118.5V117.5H125.5V124.5H132.5V128H125.5V135H118.5Z" fill="white" fill-opacity="0.29"/>
<path d="M131.5 261V254H124.5V250.5H131.5V243.5H138.5V250.5H145.5V254H138.5V261H131.5ZM149 264.5V240H170V243.5H173.5V250.5H170V254H173.5V261H170V264.5H149ZM156 250.5H166.5V243.5H156V250.5ZM156 261H166.5V254H156V261ZM177 264.5V240H198V243.5H201.5V250.5H198V254H201.5V261H198V264.5H177ZM184 250.5H194.5V243.5H184V250.5ZM184 261H194.5V254H184V261Z" fill="white" fill-opacity="0.49"/>
<path d="M62.5 61V54H55.5V50.5H62.5V43.5H69.5V50.5H76.5V54H69.5V61H62.5ZM80 64.5V40H101V43.5H104.5V50.5H101V54H104.5V61H101V64.5H80ZM87 50.5H97.5V43.5H87V50.5ZM87 61H97.5V54H87V61ZM108 64.5V40H129V43.5H132.5V50.5H129V54H132.5V61H129V64.5H108ZM115 50.5H125.5V43.5H115V50.5ZM115 61H125.5V54H115V61Z" fill="white" fill-opacity="0.49"/>
</svg>
