<svg width="34" height="34" viewBox="0 0 34 34" fill="none" xmlns="http://www.w3.org/2000/svg">
<path d="M17.154 10.1247C17.4951 10.2981 17.9004 10.2926 18.2374 10.1107L22.8689 7.52395C23.2615 7.30505 23.7457 7.33634 24.1077 7.60359C24.4764 7.86071 24.6633 8.30701 24.591 8.75024L23.7982 13.9908C23.7689 14.1736 23.7837 14.3603 23.8389 14.5377L23.9322 14.8097C23.9787 14.8992 24.0405 14.9812 24.1156 15.0496L27.9707 18.6962C28.1565 18.8781 28.2811 19.1135 28.3257 19.3708C28.4172 20.0035 27.9872 20.5942 27.3566 20.7018L22.1124 21.5032C21.7318 21.5676 21.4065 21.8127 21.2398 22.1605L18.9709 26.99C18.7809 27.394 18.3754 27.6509 17.9295 27.6491C17.4859 27.651 17.0781 27.4074 16.8706 27.0153L14.4352 22.2757C14.2659 21.9098 13.9207 21.6558 13.5209 21.6023L8.26049 20.9509C8.14223 20.9332 8.02682 20.8976 7.92064 20.8432L7.81939 20.777C7.75101 20.7477 7.68926 20.7083 7.63347 20.6602L7.55578 20.5646L7.42698 20.4181L7.28198 19.9956C7.19161 19.6048 7.30342 19.1951 7.58104 18.9057L11.3028 15.1392C11.5759 14.866 11.6966 14.4757 11.6281 14.0964L10.6399 8.86025C10.5555 8.41807 10.7256 7.96593 11.0792 7.68866C11.4365 7.41907 11.917 7.38093 12.3131 7.5905L17.154 10.1247Z" fill="#FFB20C" stroke="white" stroke-width="2"/>
</svg>
