<svg width="50" height="50" viewBox="0 0 50 50" fill="none" xmlns="http://www.w3.org/2000/svg">
<path d="M26.445 34.3503C25.9214 34.1865 25.3498 34.2912 24.917 34.6287L18.9878 39.3912C18.485 39.7943 17.7932 39.8657 17.2176 39.5744C16.635 39.299 16.2643 38.7127 16.2606 38.069L16.13 30.4719C16.1277 30.2065 16.0623 29.946 15.9418 29.7085L15.745 29.3463C15.658 29.2309 15.551 29.1297 15.4285 29.0509L9.10836 24.8169C8.80225 24.6042 8.56996 24.3011 8.44554 23.948C8.16513 23.0755 8.63188 22.1379 9.4975 21.8352L16.7191 19.4502C17.2418 19.2682 17.6431 18.844 17.7957 18.3127L19.8497 10.9442C20.0218 10.3277 20.5335 9.86776 21.1643 9.76376C21.7909 9.65515 22.4256 9.90223 22.8125 10.4069L27.3867 16.525C27.7135 17.0018 28.2621 17.2784 28.8399 17.2586L36.4314 16.9233C36.6028 16.9201 36.7744 16.9428 36.9375 16.9944L37.0964 17.0638C37.2001 17.0888 37.2967 17.1298 37.3871 17.1845L37.5198 17.3011L37.7368 17.4775L38.0427 18.0401C38.2637 18.5709 38.2035 19.1767 37.8802 19.652L33.5186 25.8649C33.1978 26.3163 33.1204 26.8968 33.3077 27.4166L35.9549 34.5822C36.1799 35.1871 36.0473 35.8668 35.6137 36.3432C35.173 36.8096 34.5029 36.9782 33.8929 36.7766L26.445 34.3503Z" fill="#FFB20C" stroke="white" stroke-width="3"/>
</svg>
