<svg width="76" height="76" viewBox="0 0 76 76" fill="none" xmlns="http://www.w3.org/2000/svg">
<rect width="76" height="76" rx="38" fill="#73AE62"/>
<path d="M38 17.6875C33.9826 17.6875 30.0554 18.8788 26.715 21.1108C23.3746 23.3427 20.7711 26.5151 19.2337 30.2267C17.6963 33.9384 17.294 38.0225 18.0778 41.9628C18.8616 45.903 20.7961 49.5224 23.6369 52.3631C26.4777 55.2039 30.097 57.1384 34.0372 57.9222C37.9775 58.706 42.0616 58.3037 45.7733 56.7663C49.4849 55.2289 52.6573 52.6254 54.8892 49.285C57.1212 45.9446 58.3125 42.0174 58.3125 38C58.3068 32.6145 56.1649 27.4513 52.3568 23.6432C48.5487 19.8351 43.3855 17.6932 38 17.6875ZM46.918 34.418L35.9805 45.3555C35.8354 45.5007 35.663 45.616 35.4734 45.6946C35.2837 45.7733 35.0803 45.8137 34.875 45.8137C34.6697 45.8137 34.4663 45.7733 34.2767 45.6946C34.087 45.616 33.9147 45.5007 33.7695 45.3555L29.082 40.668C28.7889 40.3748 28.6241 39.9771 28.6241 39.5625C28.6241 39.1479 28.7889 38.7502 29.082 38.457C29.3752 38.1638 29.7729 37.9991 30.1875 37.9991C30.6021 37.9991 30.9998 38.1638 31.293 38.457L34.875 42.041L44.707 32.207C44.8522 32.0619 45.0246 31.9467 45.2142 31.8681C45.4039 31.7896 45.6072 31.7491 45.8125 31.7491C46.0178 31.7491 46.2211 31.7896 46.4108 31.8681C46.6005 31.9467 46.7728 32.0619 46.918 32.207C47.0632 32.3522 47.1783 32.5245 47.2569 32.7142C47.3354 32.9039 47.3759 33.1072 47.3759 33.3125C47.3759 33.5178 47.3354 33.7211 47.2569 33.9108C47.1783 34.1005 47.0632 34.2728 46.918 34.418Z" fill="white"/>
</svg>
