<svg width="144" height="44" viewBox="0 0 144 44" fill="none" xmlns="http://www.w3.org/2000/svg">
<rect width="144" height="44" rx="22" fill="white"/>
<path d="M22.416 26.24C21.3387 26.24 20.3573 25.9893 19.472 25.488C18.5867 24.976 17.8933 24.2773 17.392 23.392C16.8907 22.496 16.64 21.504 16.64 20.416C16.64 18.752 17.1893 17.36 18.288 16.24C19.3973 15.12 20.7733 14.56 22.416 14.56C23.7813 14.56 24.96 14.9707 25.952 15.792C26.944 16.6133 27.5733 17.6907 27.84 19.024H25.408C25.2587 18.5867 25.04 18.208 24.752 17.888C24.464 17.5573 24.1173 17.3067 23.712 17.136C23.3173 16.9547 22.8853 16.864 22.416 16.864C21.4667 16.864 20.672 17.2053 20.032 17.888C19.4027 18.56 19.088 19.4027 19.088 20.416C19.088 21.4187 19.4027 22.256 20.032 22.928C20.672 23.6 21.4667 23.936 22.416 23.936C23.152 23.936 23.7867 23.728 24.32 23.312C24.8533 22.896 25.2213 22.3307 25.424 21.616H27.872C27.616 23.0027 26.9867 24.1227 25.984 24.976C24.992 25.8187 23.8027 26.24 22.416 26.24ZM33.2558 26.24C32.3704 26.24 31.5704 26.0427 30.8558 25.648C30.1411 25.2533 29.5811 24.7093 29.1758 24.016C28.7811 23.312 28.5838 22.5333 28.5838 21.68C28.5838 20.368 29.0264 19.28 29.9118 18.416C30.7971 17.552 31.9118 17.12 33.2558 17.12C34.5891 17.12 35.6984 17.552 36.5838 18.416C37.4691 19.28 37.9118 20.368 37.9118 21.68C37.9118 22.9813 37.4638 24.0693 36.5678 24.944C35.6824 25.808 34.5784 26.24 33.2558 26.24ZM33.2558 24.048C33.9278 24.048 34.4771 23.8293 34.9038 23.392C35.3304 22.944 35.5438 22.3733 35.5438 21.68C35.5438 20.9867 35.3304 20.4213 34.9038 19.984C34.4771 19.536 33.9224 19.312 33.2398 19.312C32.5678 19.312 32.0184 19.536 31.5918 19.984C31.1651 20.4213 30.9518 20.9867 30.9518 21.68C30.9518 22.0213 31.0051 22.3413 31.1118 22.64C31.2291 22.9387 31.3891 23.1893 31.5918 23.392C31.7944 23.5947 32.0344 23.7547 32.3118 23.872C32.5998 23.9893 32.9144 24.048 33.2558 24.048ZM49.1009 17.152C49.9969 17.152 50.7275 17.472 51.2929 18.112C51.8689 18.752 52.1569 19.5733 52.1569 20.576V26H49.8209V20.96C49.8209 19.7867 49.3835 19.2 48.5089 19.2C48.1675 19.2 47.8689 19.2853 47.6129 19.456C47.3675 19.616 47.1809 19.856 47.0529 20.176C46.9249 20.496 46.8609 20.88 46.8609 21.328V26H44.5729V20.96C44.5729 19.7867 44.1515 19.2 43.3089 19.2C42.7755 19.2 42.3595 19.3867 42.0609 19.76C41.7622 20.1333 41.6129 20.656 41.6129 21.328V26H39.2769V17.36H40.9089L41.3409 18.432C41.6609 18.0373 42.0449 17.728 42.4929 17.504C42.9515 17.2693 43.4315 17.152 43.9329 17.152C44.4769 17.152 44.9675 17.2747 45.4049 17.52C45.8422 17.7653 46.1835 18.1067 46.4289 18.544C46.5355 18.3947 46.6475 18.2613 46.7649 18.144C46.8822 18.016 47.0102 17.904 47.1489 17.808C47.2875 17.7013 47.4315 17.6107 47.5809 17.536C47.7302 17.4507 47.8849 17.3813 48.0449 17.328C48.2155 17.2747 48.3862 17.232 48.5569 17.2C48.7382 17.168 48.9195 17.152 49.1009 17.152ZM58.6925 17.12C59.9938 17.12 61.0712 17.552 61.9245 18.416C62.7885 19.28 63.2205 20.368 63.2205 21.68C63.2205 22.992 62.7885 24.0853 61.9245 24.96C61.0605 25.824 59.9832 26.256 58.6925 26.256C57.8072 26.256 57.0125 26.016 56.3085 25.536V29.12H53.9725V17.36H55.5245L55.9245 18.144C56.6925 17.4613 57.6152 17.12 58.6925 17.12ZM56.8045 23.376C57.2525 23.824 57.8125 24.048 58.4845 24.048C59.1672 24.048 59.7325 23.824 60.1805 23.376C60.6285 22.928 60.8525 22.3627 60.8525 21.68C60.8525 21.232 60.7512 20.8267 60.5485 20.464C60.3458 20.1013 60.0632 19.8187 59.7005 19.616C59.3485 19.4133 58.9485 19.312 58.5005 19.312C58.0525 19.312 57.6472 19.4133 57.2845 19.616C56.9218 19.8187 56.6392 20.1013 56.4365 20.464C56.2445 20.8267 56.1485 21.232 56.1485 21.68C56.1485 22.3627 56.3672 22.928 56.8045 23.376ZM64.5588 26V14.24H66.8948V26H64.5588ZM77.2009 21.648C77.2009 21.872 77.1849 22.1013 77.1529 22.336H70.6249C70.7209 22.9227 70.9502 23.376 71.3129 23.696C71.6862 24.0053 72.1609 24.16 72.7369 24.16C73.1315 24.16 73.4889 24.0747 73.8089 23.904C74.1289 23.7227 74.3795 23.4773 74.5609 23.168H77.0249C76.7049 24.1067 76.1609 24.8533 75.3929 25.408C74.6249 25.9627 73.7395 26.24 72.7369 26.24C71.4569 26.24 70.3902 25.8027 69.5369 24.928C68.6835 24.0533 68.2569 22.9707 68.2569 21.68C68.2569 21.168 68.3262 20.6773 68.4649 20.208C68.6142 19.7387 68.8222 19.3173 69.0889 18.944C69.3662 18.5707 69.6862 18.2507 70.0489 17.984C70.4115 17.7067 70.8222 17.4933 71.2809 17.344C71.7395 17.1947 72.2249 17.12 72.7369 17.12C73.6009 17.12 74.3742 17.3227 75.0569 17.728C75.7502 18.1333 76.2782 18.6827 76.6409 19.376C77.0142 20.0693 77.2009 20.8267 77.2009 21.648ZM72.7369 19.104C72.2142 19.104 71.7715 19.248 71.4089 19.536C71.0569 19.824 70.8169 20.224 70.6889 20.736H74.8649C74.7582 20.384 74.6035 20.0907 74.4009 19.856C74.1982 19.6107 73.9529 19.424 73.6649 19.296C73.3875 19.168 73.0782 19.104 72.7369 19.104ZM82.6428 23.92H83.6988V26H82.0508C81.4214 26 80.8721 25.8773 80.4028 25.632C79.9441 25.3867 79.5921 25.0347 79.3468 24.576C79.1014 24.1067 78.9788 23.552 78.9788 22.912V19.232H77.4108V18.736L80.8348 15.104H81.2668V17.36H83.6508V19.232H81.3148V22.608C81.3148 23.024 81.4268 23.3493 81.6508 23.584C81.8854 23.808 82.2161 23.92 82.6428 23.92ZM93.2796 21.648C93.2796 21.872 93.2636 22.1013 93.2316 22.336H86.7036C86.7996 22.9227 87.029 23.376 87.3916 23.696C87.765 24.0053 88.2396 24.16 88.8156 24.16C89.2103 24.16 89.5676 24.0747 89.8876 23.904C90.2076 23.7227 90.4583 23.4773 90.6396 23.168H93.1036C92.7836 24.1067 92.2396 24.8533 91.4716 25.408C90.7036 25.9627 89.8183 26.24 88.8156 26.24C87.5356 26.24 86.469 25.8027 85.6156 24.928C84.7623 24.0533 84.3356 22.9707 84.3356 21.68C84.3356 21.168 84.405 20.6773 84.5436 20.208C84.693 19.7387 84.901 19.3173 85.1676 18.944C85.445 18.5707 85.765 18.2507 86.1276 17.984C86.4903 17.7067 86.901 17.4933 87.3596 17.344C87.8183 17.1947 88.3036 17.12 88.8156 17.12C89.6796 17.12 90.453 17.3227 91.1356 17.728C91.829 18.1333 92.357 18.6827 92.7196 19.376C93.093 20.0693 93.2796 20.8267 93.2796 21.648ZM88.8156 19.104C88.293 19.104 87.8503 19.248 87.4876 19.536C87.1356 19.824 86.8956 20.224 86.7676 20.736H90.9436C90.837 20.384 90.6823 20.0907 90.4796 19.856C90.277 19.6107 90.0316 19.424 89.7436 19.296C89.4663 19.168 89.157 19.104 88.8156 19.104Z" fill="black"/>
<path d="M112.5 15L119.5 22L112.5 29" stroke="black" stroke-width="2" stroke-linecap="round" stroke-linejoin="round"/>
</svg>
