<svg width="17" height="17" viewBox="0 0 17 17" fill="none" xmlns="http://www.w3.org/2000/svg">
<path d="M13.432 10.4334C13.2162 10.6426 13.117 10.9451 13.1662 11.2418L13.907 15.3418C13.9695 15.6893 13.8228 16.0409 13.532 16.2418C13.247 16.4501 12.8678 16.4751 12.557 16.3084L8.86616 14.3834C8.73782 14.3151 8.59532 14.2784 8.44949 14.2743H8.22366C8.14532 14.2859 8.06866 14.3109 7.99866 14.3493L4.30699 16.2834C4.12449 16.3751 3.91782 16.4076 3.71532 16.3751C3.22199 16.2818 2.89282 15.8118 2.97366 15.3159L3.71532 11.2159C3.76449 10.9168 3.66532 10.6126 3.44949 10.4001L0.440323 7.48343C0.188656 7.23927 0.101156 6.8726 0.216156 6.54177C0.327823 6.21177 0.612823 5.97093 0.95699 5.91677L5.09866 5.31593C5.41366 5.28343 5.69032 5.09177 5.83199 4.80843L7.65699 1.06677C7.70032 0.983435 7.75616 0.906768 7.82366 0.841768L7.89866 0.783435C7.93782 0.740102 7.98282 0.704268 8.03282 0.675102L8.12366 0.641768L8.26532 0.583435H8.61616C8.92949 0.615935 9.20532 0.803435 9.34949 1.08344L11.1987 4.80843C11.332 5.08094 11.5912 5.2701 11.8903 5.31593L16.032 5.91677C16.382 5.96677 16.6745 6.20844 16.7903 6.54177C16.8995 6.87594 16.8053 7.2426 16.5487 7.48343L13.432 10.4334Z" fill="#6F6F6F"/>
</svg>
