<svg width="436" height="382" viewBox="0 0 436 382" fill="none" xmlns="http://www.w3.org/2000/svg">
<rect x="0.499985" y="175.704" width="4.34568" height="32.5926" fill="white" fill-opacity="0.2"/>
<rect x="7.0185" y="153.975" width="4.34568" height="76.0494" fill="white" fill-opacity="0.2"/>
<rect x="13.537" y="167.012" width="4.34568" height="49.9753" fill="white" fill-opacity="0.2"/>
<rect x="20.0555" y="153.975" width="4.34568" height="76.0494" fill="white" fill-opacity="0.2"/>
<rect x="26.5741" y="163.753" width="4.34568" height="56.4938" fill="white" fill-opacity="0.2"/>
<rect x="33.0926" y="137.679" width="4.34568" height="108.642" fill="white" fill-opacity="0.2"/>
<rect x="39.6111" y="130.074" width="4.34568" height="123.852" fill="white" fill-opacity="0.2"/>
<rect x="46.1296" y="146.37" width="4.34568" height="91.2593" fill="white" fill-opacity="0.2"/>
<rect x="52.6481" y="153.975" width="4.34568" height="76.0494" fill="white" fill-opacity="0.2"/>
<rect x="59.1667" y="163.753" width="4.34568" height="56.4938" fill="white" fill-opacity="0.2"/>
<rect x="65.6852" y="137.679" width="4.34568" height="108.642" fill="white" fill-opacity="0.2"/>
<rect x="72.2037" y="153.975" width="4.34568" height="76.0494" fill="white" fill-opacity="0.2"/>
<rect x="78.7222" y="163.753" width="4.34568" height="56.4938" fill="white" fill-opacity="0.2"/>
<rect x="85.2407" y="137.679" width="4.34568" height="108.642" fill="white" fill-opacity="0.2"/>
<rect x="91.7592" y="146.37" width="5.4321" height="91.2593" fill="white" fill-opacity="0.2"/>
<rect x="99.3642" y="175.704" width="4.34568" height="32.5926" fill="white" fill-opacity="0.2"/>
<rect x="105.883" y="169.185" width="4.34568" height="45.6296" fill="white" fill-opacity="0.2"/>
<rect x="112.401" y="163.753" width="4.34568" height="56.4938" fill="white" fill-opacity="0.2"/>
<rect x="118.92" y="177.876" width="4.34568" height="28.2469" fill="white" fill-opacity="0.2"/>
<rect x="125.438" y="163.753" width="4.34568" height="56.4938" fill="white" fill-opacity="0.2"/>
<rect x="131.957" y="137.679" width="4.34568" height="108.642" fill="white" fill-opacity="0.2"/>
<rect x="138.475" y="146.37" width="5.4321" height="91.2593" fill="white" fill-opacity="0.2"/>
<rect x="146.08" y="175.704" width="4.34568" height="32.5926" fill="white" fill-opacity="0.2"/>
<rect x="152.599" y="153.975" width="4.34568" height="76.0494" fill="white" fill-opacity="0.2"/>
<rect x="159.117" y="167.012" width="4.34568" height="49.9753" fill="white" fill-opacity="0.2"/>
<rect x="165.636" y="153.975" width="4.34568" height="76.0494" fill="white" fill-opacity="0.2"/>
<rect x="172.154" y="163.753" width="4.34568" height="56.4938" fill="white" fill-opacity="0.2"/>
<rect x="178.673" y="137.679" width="4.34568" height="108.642" fill="white" fill-opacity="0.2"/>
<rect x="185.191" y="130.074" width="4.34568" height="123.852" fill="white" fill-opacity="0.2"/>
<rect x="191.71" y="146.37" width="4.34568" height="91.2593" fill="white" fill-opacity="0.2"/>
<rect x="198.228" y="153.975" width="4.34568" height="76.0494" fill="white" fill-opacity="0.2"/>
<rect x="204.747" y="163.753" width="4.34568" height="56.4938" fill="white" fill-opacity="0.2"/>
<rect x="211.265" y="137.679" width="4.34568" height="108.642" fill="white" fill-opacity="0.2"/>
<rect x="217.784" y="153.975" width="4.34568" height="76.0494" fill="white" fill-opacity="0.2"/>
<rect x="224.302" y="163.753" width="4.34568" height="56.4938" fill="white" fill-opacity="0.2"/>
<rect x="230.821" y="137.679" width="4.34568" height="108.642" fill="white" fill-opacity="0.2"/>
<rect x="237.339" y="146.37" width="5.4321" height="91.2593" fill="white" fill-opacity="0.2"/>
<rect x="244.944" y="175.704" width="4.34568" height="32.5926" fill="white" fill-opacity="0.2"/>
<rect x="251.463" y="169.185" width="4.34568" height="45.6296" fill="white" fill-opacity="0.2"/>
<rect x="257.981" y="163.753" width="4.34568" height="56.4938" fill="white" fill-opacity="0.2"/>
<rect x="264.5" y="177.876" width="4.34568" height="28.2469" fill="white" fill-opacity="0.2"/>
<rect x="271.018" y="163.753" width="4.34568" height="56.4938" fill="white" fill-opacity="0.2"/>
<rect x="277.537" y="137.679" width="4.34568" height="108.642" fill="white" fill-opacity="0.2"/>
<rect x="284.056" y="146.37" width="5.4321" height="91.2593" fill="white" fill-opacity="0.2"/>
<rect x="291.66" y="175.703" width="4.34568" height="32.5926" fill="white" fill-opacity="0.2"/>
<rect x="298.179" y="153.975" width="4.34568" height="76.0494" fill="white" fill-opacity="0.2"/>
<rect x="304.697" y="167.012" width="4.34568" height="49.9753" fill="white" fill-opacity="0.2"/>
<rect x="311.216" y="153.975" width="4.34568" height="76.0494" fill="white" fill-opacity="0.2"/>
<rect x="317.735" y="163.753" width="4.34568" height="56.4938" fill="white" fill-opacity="0.2"/>
<rect x="324.253" y="137.679" width="4.34568" height="108.642" fill="white" fill-opacity="0.2"/>
<rect x="330.772" y="130.074" width="4.34568" height="123.852" fill="white" fill-opacity="0.2"/>
<rect x="337.29" y="146.37" width="4.34568" height="91.2593" fill="white" fill-opacity="0.2"/>
<rect x="343.809" y="153.975" width="4.34568" height="76.0494" fill="white" fill-opacity="0.2"/>
<rect x="350.327" y="163.753" width="4.34568" height="56.4938" fill="white" fill-opacity="0.2"/>
<rect x="356.846" y="137.679" width="4.34568" height="108.642" fill="white" fill-opacity="0.2"/>
<rect x="363.364" y="153.975" width="4.34568" height="76.0494" fill="white" fill-opacity="0.2"/>
<rect x="369.883" y="163.753" width="4.34568" height="56.4938" fill="white" fill-opacity="0.2"/>
<rect x="376.401" y="137.679" width="4.34568" height="108.642" fill="white" fill-opacity="0.2"/>
<rect x="382.92" y="146.37" width="5.4321" height="91.2593" fill="white" fill-opacity="0.2"/>
<rect x="390.525" y="175.703" width="4.34568" height="32.5926" fill="white" fill-opacity="0.2"/>
<rect x="397.043" y="169.185" width="4.34568" height="45.6296" fill="white" fill-opacity="0.2"/>
<rect x="403.562" y="163.753" width="4.34568" height="56.4938" fill="white" fill-opacity="0.2"/>
<rect x="410.08" y="177.876" width="4.34568" height="28.2469" fill="white" fill-opacity="0.2"/>
<rect x="416.599" y="163.753" width="4.34568" height="56.4938" fill="white" fill-opacity="0.2"/>
<rect x="423.117" y="137.679" width="4.34568" height="108.642" fill="white" fill-opacity="0.2"/>
<rect x="429.636" y="146.37" width="5.4321" height="91.2593" fill="white" fill-opacity="0.2"/>
<path d="M0.5 153.948H4.85V221.053H0.5V153.948Z" fill="white" fill-opacity="0.2"/>
<path d="M7.025 109.211H11.375V265.79H7.025V109.211Z" fill="white" fill-opacity="0.2"/>
<path d="M13.55 136.053H17.9V238.947H13.55V136.053Z" fill="white" fill-opacity="0.2"/>
<path d="M20.075 109.211H24.425V265.79H20.075V109.211Z" fill="white" fill-opacity="0.2"/>
<path d="M26.6 129.342H30.95V245.658H26.6V129.342Z" fill="white" fill-opacity="0.2"/>
<path d="M33.125 75.6582H37.475V299.342H33.125V75.6582Z" fill="white" fill-opacity="0.2"/>
<path d="M39.65 60.0003H44V315H39.65V60.0003Z" fill="white" fill-opacity="0.2"/>
<path d="M46.175 93.5529H50.525V281.447H46.175V93.5529Z" fill="white" fill-opacity="0.2"/>
<path d="M52.7 109.211H57.05V265.79H52.7V109.211Z" fill="white" fill-opacity="0.2"/>
<path d="M59.225 129.342H63.575V245.658H59.225V129.342Z" fill="white" fill-opacity="0.2"/>
<path d="M65.75 75.6582H70.1V299.342H65.75V75.6582Z" fill="white" fill-opacity="0.2"/>
<path d="M72.275 109.211H76.625V265.79H72.275V109.211Z" fill="white" fill-opacity="0.2"/>
<path d="M78.8 129.342H83.15V245.658H78.8V129.342Z" fill="white" fill-opacity="0.2"/>
<path d="M85.325 75.6582H89.675V299.342H85.325V75.6582Z" fill="white" fill-opacity="0.2"/>
<path d="M91.85 93.5529H97.2875V281.447H91.85V93.5529Z" fill="white" fill-opacity="0.2"/>
<path d="M99.4625 153.948H103.813V221.053H99.4625V153.948Z" fill="white" fill-opacity="0.2"/>
<path d="M105.988 140.527H110.338V234.474H105.988V140.527Z" fill="white" fill-opacity="0.2"/>
<path d="M112.513 129.342H116.863V245.658H112.513V129.342Z" fill="white" fill-opacity="0.2"/>
<path d="M119.038 158.421H123.388V216.579H119.038V158.421Z" fill="white" fill-opacity="0.2"/>
<path d="M125.563 129.342H129.913V245.658H125.563V129.342Z" fill="white" fill-opacity="0.2"/>
<path d="M132.087 75.6582H136.438V299.342H132.087V75.6582Z" fill="white" fill-opacity="0.2"/>
<path d="M138.613 93.5529H144.05V281.447H138.613V93.5529Z" fill="white" fill-opacity="0.2"/>
<path d="M146.225 153.948H150.575V221.053H146.225V153.948Z" fill="white" fill-opacity="0.2"/>
<path d="M152.75 109.211H157.1V265.79H152.75V109.211Z" fill="white" fill-opacity="0.2"/>
<path d="M159.275 136.053H163.625V238.947H159.275V136.053Z" fill="white" fill-opacity="0.2"/>
<path d="M165.8 109.211H170.15V265.79H165.8V109.211Z" fill="white" fill-opacity="0.2"/>
<path d="M172.325 129.342H176.675V245.658H172.325V129.342Z" fill="white" fill-opacity="0.2"/>
<path d="M178.85 75.6582H183.2V299.342H178.85V75.6582Z" fill="white" fill-opacity="0.2"/>
<path d="M185.375 60.0003H189.725V315H185.375V60.0003Z" fill="white" fill-opacity="0.2"/>
<path d="M191.9 93.5529H196.25V281.447H191.9V93.5529Z" fill="white" fill-opacity="0.2"/>
<path d="M198.425 109.211H202.775V265.79H198.425V109.211Z" fill="white" fill-opacity="0.2"/>
<path d="M204.95 129.342H209.3V245.658H204.95V129.342Z" fill="white" fill-opacity="0.2"/>
<path d="M211.475 75.6582H215.825V299.342H211.475V75.6582Z" fill="white" fill-opacity="0.2"/>
<path d="M218 109.211H222.35V265.79H218V109.211Z" fill="white" fill-opacity="0.2"/>
<path d="M224.525 129.342H228.875V245.658H224.525V129.342Z" fill="white" fill-opacity="0.2"/>
<path d="M231.05 75.6582H235.4V299.342H231.05V75.6582Z" fill="white" fill-opacity="0.2"/>
<path d="M237.575 93.5529H243.013V281.447H237.575V93.5529Z" fill="white" fill-opacity="0.2"/>
<path d="M245.188 153.948H249.538V221.053H245.188V153.948Z" fill="white" fill-opacity="0.2"/>
<path d="M251.713 140.527H256.063V234.474H251.713V140.527Z" fill="white" fill-opacity="0.2"/>
<path d="M258.237 129.342H262.588V245.658H258.237V129.342Z" fill="white" fill-opacity="0.2"/>
<path d="M264.763 158.421H269.113V216.579H264.763V158.421Z" fill="white" fill-opacity="0.2"/>
<path d="M271.287 129.342H275.638V245.658H271.287V129.342Z" fill="white" fill-opacity="0.2"/>
<path d="M277.812 75.6582H282.163V299.342H277.812V75.6582Z" fill="white" fill-opacity="0.2"/>
<path d="M284.337 93.5529H289.775V281.447H284.337V93.5529Z" fill="white" fill-opacity="0.2"/>
<path d="M291.95 153.947H296.3V221.052H291.95V153.947Z" fill="white" fill-opacity="0.2"/>
<path d="M298.475 109.21H302.825V265.789H298.475V109.21Z" fill="white" fill-opacity="0.2"/>
<path d="M305 136.053H309.35V238.947H305V136.053Z" fill="white" fill-opacity="0.2"/>
<path d="M311.525 109.21H315.875V265.789H311.525V109.21Z" fill="white" fill-opacity="0.2"/>
<path d="M318.05 129.342H322.4V245.658H318.05V129.342Z" fill="white" fill-opacity="0.2"/>
<path d="M324.575 75.6579H328.925V299.342H324.575V75.6579Z" fill="white" fill-opacity="0.2"/>
<path d="M331.1 60H335.45V315H331.1V60Z" fill="white" fill-opacity="0.2"/>
<path d="M337.625 93.5526H341.975V281.447H337.625V93.5526Z" fill="white" fill-opacity="0.2"/>
<path d="M344.15 109.21H348.5V265.789H344.15V109.21Z" fill="white" fill-opacity="0.2"/>
<path d="M350.675 129.342H355.025V245.658H350.675V129.342Z" fill="white" fill-opacity="0.2"/>
<path d="M357.2 75.6579H361.55V299.342H357.2V75.6579Z" fill="white" fill-opacity="0.2"/>
<path d="M363.725 109.21H368.075V265.789H363.725V109.21Z" fill="white" fill-opacity="0.2"/>
<path d="M370.25 129.342H374.6V245.658H370.25V129.342Z" fill="white" fill-opacity="0.2"/>
<path d="M376.775 75.6579H381.125V299.342H376.775V75.6579Z" fill="white" fill-opacity="0.2"/>
<path d="M383.3 93.5526H388.738V281.447H383.3V93.5526Z" fill="white" fill-opacity="0.2"/>
<path d="M390.912 153.947H395.262V221.052H390.912V153.947Z" fill="white" fill-opacity="0.2"/>
<path d="M397.438 140.526H401.787V234.473H397.438V140.526Z" fill="white" fill-opacity="0.2"/>
<path d="M403.962 129.342H408.312V245.658H403.962V129.342Z" fill="white" fill-opacity="0.2"/>
<path d="M410.487 158.421H414.837V216.579H410.487V158.421Z" fill="white" fill-opacity="0.2"/>
<path d="M417.012 129.342H421.362V245.658H417.012V129.342Z" fill="white" fill-opacity="0.2"/>
<path d="M423.537 75.6579H427.887V299.342H423.537V75.6579Z" fill="white" fill-opacity="0.2"/>
<path d="M430.062 93.5526H435.5V281.447H430.062V93.5526Z" fill="white" fill-opacity="0.2"/>
<path d="M126 61V54H119V50.5H126V43.5H133V50.5H140V54H133V61H126Z" fill="white"/>
<path d="M303 112V105H296V101.5H303V94.5H310V101.5H317V105H310V112H303Z" fill="white"/>
<path d="M366 372V365H359V361.5H366V354.5H373V361.5H380V365H373V372H366Z" fill="white"/>
<path d="M76 31V24H69V20.5H76V13.5H83V20.5H90V24H83V31H76Z" fill="white" fill-opacity="0.29"/>
<path d="M316 73V66H309V62.5H316V55.5H323V62.5H330V66H323V73H316Z" fill="white" fill-opacity="0.49"/>
<path d="M333.5 76.5V52H354.5V55.5H358V62.5H354.5V66H358V73H354.5V76.5H333.5ZM340.5 62.5H351V55.5H340.5V62.5ZM340.5 73H351V66H340.5V73ZM361.5 76.5V52H382.5V55.5H386V62.5H382.5V66H386V73H382.5V76.5H361.5ZM368.5 62.5H379V55.5H368.5V62.5ZM368.5 73H379V66H368.5V73Z" fill="white"/>
<path d="M49 359V352H42V348.5H49V341.5H56V348.5H63V352H56V359H49Z" fill="white" fill-opacity="0.29"/>
<path d="M266 41V34H259V30.5H266V23.5H273V30.5H280V34H273V41H266Z" fill="white" fill-opacity="0.12"/>
</svg>
